<svg data-v-423bf9ae="" xmlns="http://www.w3.org/2000/svg" viewBox="0 0 448.3177478882575 60" class="font"><!----><!----><!----><g data-v-423bf9ae="" id="6eff7335-d936-4901-bb2c-0c5823e6d9b1" fill="black" transform="matrix(5.60747673547115,0,0,5.60747673547115,-4.6541995222426635,0.7289725449191664)"><path d="M2.09 7.03L0.83 7.03L0.83 8.95L2.37 10.57L4.37 10.57L5.91 8.95L5.91 6.12L2.16 3.49L2.16 2.03L2.93 1.20L3.81 1.20L4.59 2.03L4.59 3.12L5.85 3.12L5.85 1.51L4.35-0.06L2.39-0.06L0.90 1.51L0.90 4.14L4.66 6.78L4.66 8.44L3.84 9.31L2.91 9.31L2.09 8.44ZM11.51 3.09L12.78 3.09L12.78 1.51L11.26-0.08L9.27-0.08L7.74 1.51L7.74 8.88L9.25 10.57L11.26 10.57L12.78 8.88L12.78 7.22L11.51 7.24L11.51 8.40L10.70 9.30L9.81 9.30L9.02 8.40L9.02 2.02L9.80 1.19L10.71 1.19L11.51 2.02ZM19.80 1.46L18.21-0.13L16.21-0.13L14.63 1.46L14.63 8.86L16.20 10.54L18.21 10.54L19.80 8.86ZM17.67 9.28L16.74 9.28L15.89 8.37L15.89 1.97L16.73 1.13L17.68 1.13L18.52 1.97L18.52 8.37ZM21.83 0L21.83 8.88L23.34 10.56L25.31 10.56L26.81 8.88L26.81 0L25.54 0L25.54 8.40L24.74 9.28L23.90 9.28L23.10 8.40L23.10 0ZM29.81 10.50L31.08 10.50L31.08 1.15L32.94 1.15L32.94 0L27.96 0L27.96 1.15L29.81 1.15ZM35.35 7.03L34.09 7.03L34.09 8.95L35.63 10.57L37.63 10.57L39.17 8.95L39.17 6.12L35.42 3.49L35.42 2.03L36.19 1.20L37.07 1.20L37.86 2.03L37.86 3.12L39.12 3.12L39.12 1.51L37.62-0.06L35.66-0.06L34.16 1.51L34.16 4.14L37.93 6.78L37.93 8.44L37.10 9.31L36.18 9.31L35.35 8.44ZM44.35 0.01L41.06 0.01L41.06 10.50L42.34 10.50L42.34 7.06L44.37 7.06L45.98 5.36L45.98 1.61ZM42.34 5.78L42.34 1.29L43.83 1.29L44.69 2.14L44.69 4.86L43.82 5.78ZM49.11 1.30L50.40 1.30L51.25 2.16L51.25 4.76L50.39 5.70L49.11 5.70ZM49.11 6.97L50.22 6.97L51.86 10.50L53.26 10.50L51.39 6.48L52.53 5.26L52.53 1.64L50.92 0.01L47.84 0.01L47.84 10.50L49.11 10.50ZM59.56 1.46L57.97-0.13L55.97-0.13L54.39 1.46L54.39 8.86L55.96 10.54L57.97 10.54L59.56 8.86ZM57.43 9.28L56.50 9.28L55.65 8.37L55.65 1.97L56.49 1.13L57.44 1.13L58.28 1.97L58.28 8.37ZM62.75 4.93L62.75 1.32L65.76 1.32L65.76 0.06C64.06 0.06 63.17 0.06 61.47 0.06L61.47 10.50C61.91 10.50 62.33 10.50 62.75 10.50L62.75 6.20L65.27 6.20L65.27 4.93ZM68.47 10.50L68.47 0C67.38 0 68.29 0 67.20 0L67.20 10.50ZM70.50 0.01L70.50 10.50L74.94 10.50L74.94 9.28L71.78 9.28L71.78 0.01ZM77.56 4.68L77.56 1.29L80.58 1.29L80.58 0.01C78.89 0.01 77.98 0.01 76.29 0.01L76.29 10.50L80.78 10.50L80.78 9.23L77.56 9.23L77.56 5.95L80.09 5.95L80.09 4.68Z"></path></g><!----><!----></svg>